ffmpeg started on 2025-06-30 at 14:36:40
Report written to "D:\Convert\FFMetrics\reports\ssim_report-6.txt"
Log level: 32
Command line:
ffmpeg -hide_banner -nostdin -i "G:\\\xc0\xed\xe8\xec\xe5\\\xce\xed\xe3\xee\xe8\xed\xe3\xe8\\!_37_\xc7\xe8\xec\xe0_2025\\JamClub\\\xc3\xee\xf1\xef\xee\xe4\xe8\xed \xe8 \xef\xb8\xf1\\JamClub_Tono_to_Inu_Woof_Woof!_S01E06_1080p_HEVC.mkv" -i "G:\\\xc0\xed\xe8\xec\xe5\\\xce\xed\xe3\xee\xe8\xed\xe3\xe8\\!_37_\xc7\xe8\xec\xe0_2025\\JamClub\\\xc3\xee\xf1\xef\xee\xe4\xe8\xed \xe8 \xef\xb8\xf1\\JamClub_Tono_to_Inu_Woof_Woof!_S01E06_1080p.mp4" -lavfi "[0:v]settb=AVTB,setpts=PTS-STARTPTS,format=pix_fmts=yuv420p10,fps=24000/1001,scale=1920:1080:flags=bicubic[main];[1:v]settb=AVTB,setpts=PTS-STARTPTS,format=pix_fmts=yuv420p,fps=24000/1001,scale=1920:1080:flags=bicubic[ref];[main][ref]ssim=eof_action=endall:stats_file='D\\:/Convert/FFMetrics/logs/ssim_logfile-6.txt'" -f null -
Input #0, matroska,webm, from 'G:\Аниме\Онгоинги\!_37_Зима_2025\JamClub\Господин и пёс\JamClub_Tono_to_Inu_Woof_Woof!_S01E06_1080p_HEVC.mkv':
  Metadata:
    COMPATIBLE_BRANDS: qt  
    MAJOR_BRAND     : qt  
    MINOR_VERSION   : 512
    ENCODER         : Lavf61.7.100
  Duration: 00:02:53.61, start: -0.021000, bitrate: 1899 kb/s
  Stream #0:0(eng): Video: hevc (Main 10), yuv420p10le(tv, bt709, progressive), 1920x1080 [SAR 1:1 DAR 16:9], 23.98 fps, 23.98 tbr, 1k tbn (default)
      Metadata:
        HANDLER_NAME    : VideoHandler
        VENDOR_ID       : FFMP
        ENCODER         : Lavc61.19.100 libx265
        BPS             : 1706781
        DURATION        : 00:02:53.548708333
        NUMBER_OF_FRAMES: 4161
        NUMBER_OF_BYTES : 37026066
        _STATISTICS_WRITING_APP: mkvpropedit v66.0.0 ('Josie') 64-bit
        _STATISTICS_WRITING_DATE_UTC: 2025-06-28 15:49:02
        _STATISTICS_TAGS: BPS DURATION NUMBER_OF_FRAMES NUMBER_OF_BYTES
  Stream #0:1(eng): Audio: aac (LC), 48000 Hz, stereo, fltp (default)
      Metadata:
        HANDLER_NAME    : SoundHandler
        VENDOR_ID       : [0][0][0][0]
        ENCODER         : Lavc61.19.100 aac
        BPS             : 188797
        DURATION        : 00:02:53.589000000
        NUMBER_OF_FRAMES: 8138
        NUMBER_OF_BYTES : 4096652
        _STATISTICS_WRITING_APP: mkvpropedit v66.0.0 ('Josie') 64-bit
        _STATISTICS_WRITING_DATE_UTC: 2025-06-28 15:49:02
        _STATISTICS_TAGS: BPS DURATION NUMBER_OF_FRAMES NUMBER_OF_BYTES
Input #1, mov,mp4,m4a,3gp,3g2,mj2, from 'G:\Аниме\Онгоинги\!_37_Зима_2025\JamClub\Господин и пёс\JamClub_Tono_to_Inu_Woof_Woof!_S01E06_1080p.mp4':
  Metadata:
    major_brand     : qt  
    minor_version   : 512
    compatible_brands: qt  
    encoder         : Lavf54.18.100
  Duration: 00:02:53.57, start: 0.000000, bitrate: 2085 kb/s
  Stream #1:0[0x1](eng): Video: h264 (High) (avc1 / 0x31637661), yuv420p(progressive), 1920x1080 [SAR 1:1 DAR 16:9], 1952 kb/s, 23.98 fps, 23.98 tbr, 24k tbn (default)
      Metadata:
        handler_name    : VideoHandler
        vendor_id       : FFMP
        encoder         : libx264
  Stream #1:1[0x2](eng): Audio: aac (LC) (mp4a / 0x6134706D), 48000 Hz, stereo, fltp, 128 kb/s (default)
      Metadata:
        handler_name    : SoundHandler
        vendor_id       : [0][0][0][0]
Stream mapping:
  Stream #0:0 (hevc) -> settb:default
  Stream #1:0 (h264) -> settb:default
  ssim:default -> Stream #0:0 (wrapped_avframe)
  Stream #0:1 -> #0:1 (aac (native) -> pcm_s16le (native))
[swscaler @ 000001f74c746a40] No accelerated colorspace conversion found from yuv420p to bgr48le.
[swscaler @ 000001f74c8c89c0] No accelerated colorspace conversion found from yuv420p to bgr48le.
[swscaler @ 000001f74ca94040] No accelerated colorspace conversion found from yuv420p to bgr48le.
[swscaler @ 000001f74cab3f80] No accelerated colorspace conversion found from yuv420p to bgr48le.
[swscaler @ 000001f74cb5ad00] No accelerated colorspace conversion found from yuv420p to bgr48le.
[swscaler @ 000001f74ce70040] No accelerated colorspace conversion found from yuv420p to bgr48le.
[swscaler @ 000001f74ce8b800] No accelerated colorspace conversion found from yuv420p to bgr48le.
[swscaler @ 000001f74d01f040] No accelerated colorspace conversion found from yuv420p to bgr48le.
[swscaler @ 000001f752ed7040] No accelerated colorspace conversion found from yuv420p to bgr48le.
[swscaler @ 000001f75315cd40] No accelerated colorspace conversion found from yuv420p to bgr48le.
[swscaler @ 000001f75325e040] No accelerated colorspace conversion found from yuv420p to bgr48le.
[swscaler @ 000001f7532bb040] No accelerated colorspace conversion found from yuv420p to bgr48le.
[swscaler @ 000001f753521200] No accelerated colorspace conversion found from yuv420p to bgr48le.
[swscaler @ 000001f753621140] No accelerated colorspace conversion found from yuv420p to bgr48le.
[swscaler @ 000001f75367d040] No accelerated colorspace conversion found from yuv420p to bgr48le.
[swscaler @ 000001f744929640] No accelerated colorspace conversion found from yuv420p to bgr48le.
Output #0, null, to 'pipe:':
  Metadata:
    COMPATIBLE_BRANDS: qt  
    MAJOR_BRAND     : qt  
    MINOR_VERSION   : 512
    encoder         : Lavf61.7.100
  Stream #0:0: Video: wrapped_avframe, yuv420p10le(tv, bt709, progressive), 1920x1080 [SAR 1:1 DAR 16:9], q=2-31, 200 kb/s, 23.98 fps, 23.98 tbn
      Metadata:
        encoder         : Lavc61.19.100 wrapped_avframe
  Stream #0:1(eng): Audio: pcm_s16le, 48000 Hz, stereo, s16, 1536 kb/s (default)
      Metadata:
        HANDLER_NAME    : SoundHandler
        VENDOR_ID       : [0][0][0][0]
        _STATISTICS_TAGS: BPS DURATION NUMBER_OF_FRAMES NUMBER_OF_BYTES
        BPS             : 188797
        DURATION        : 00:02:53.589000000
        NUMBER_OF_FRAMES: 8138
        NUMBER_OF_BYTES : 4096652
        _STATISTICS_WRITING_APP: mkvpropedit v66.0.0 ('Josie') 64-bit
        _STATISTICS_WRITING_DATE_UTC: 2025-06-28 15:49:02
        encoder         : Lavc61.19.100 pcm_s16le
frame=   31 fps=0.0 q=-0.0 size=N/A time=00:00:01.29 bitrate=N/A speed=2.47x    frame=   60 fps= 58 q=-0.0 size=N/A time=00:00:02.50 bitrate=N/A speed=2.41x    frame=   95 fps= 61 q=-0.0 size=N/A time=00:00:03.96 bitrate=N/A speed=2.56x    frame=  138 fps= 67 q=-0.0 size=N/A time=00:00:05.75 bitrate=N/A speed=2.78x    frame=  179 fps= 69 q=-0.0 size=N/A time=00:00:07.46 bitrate=N/A speed=2.89x    frame=  209 fps= 68 q=-0.0 size=N/A time=00:00:08.71 bitrate=N/A speed=2.82x    frame=  256 fps= 71 q=-0.0 size=N/A time=00:00:10.67 bitrate=N/A speed=2.95x    frame=  290 fps= 70 q=-0.0 size=N/A time=00:00:12.09 bitrate=N/A speed=2.93x    frame=  329 fps= 71 q=-0.0 size=N/A time=00:00:13.72 bitrate=N/A speed=2.95x    frame=  364 fps= 71 q=-0.0 size=N/A time=00:00:15.18 bitrate=N/A speed=2.94x    frame=  406 fps= 71 q=-0.0 size=N/A time=00:00:16.93 bitrate=N/A speed=2.98x    frame=  443 fps= 72 q=-0.0 size=N/A time=00:00:18.47 bitrate=N/A speed=2.99x    frame=  481 fps= 72 q=-0.0 size=N/A time=00:00:20.06 bitrate=N/A speed=2.99x    frame=  519 fps= 72 q=-0.0 size=N/A time=00:00:21.64 bitrate=N/A speed=   3x    frame=  551 fps= 71 q=-0.0 size=N/A time=00:00:22.98 bitrate=N/A speed=2.97x    frame=  596 fps= 72 q=-0.0 size=N/A time=00:00:24.85 bitrate=N/A speed=3.01x    frame=  632 fps= 72 q=-0.0 size=N/A time=00:00:26.35 bitrate=N/A speed=3.01x    frame=  668 fps= 72 q=-0.0 size=N/A time=00:00:27.86 bitrate=N/A speed=   3x    frame=  708 fps= 72 q=-0.0 size=N/A time=00:00:29.52 bitrate=N/A speed=3.01x    frame=  746 fps= 72 q=-0.0 size=N/A time=00:00:31.11 bitrate=N/A speed=3.02x    frame=  784 fps= 72 q=-0.0 size=N/A time=00:00:32.69 bitrate=N/A speed=3.02x    frame=  821 fps= 72 q=-0.0 size=N/A time=00:00:34.24 bitrate=N/A speed=3.02x    frame=  853 fps= 72 q=-0.0 size=N/A time=00:00:35.57 bitrate=N/A speed=   3x    frame=  894 fps= 72 q=-0.0 size=N/A time=00:00:37.28 bitrate=N/A speed=3.01x    frame=  931 fps= 72 q=-0.0 size=N/A time=00:00:38.83 bitrate=N/A speed=3.01x    frame=  966 fps= 72 q=-0.0 size=N/A time=00:00:40.29 bitrate=N/A speed=   3x    frame=  999 fps= 72 q=-0.0 size=N/A time=00:00:41.66 bitrate=N/A speed=2.99x    frame= 1039 fps= 72 q=-0.0 size=N/A time=00:00:43.33 bitrate=N/A speed=   3x    frame= 1078 fps= 72 q=-0.0 size=N/A time=00:00:44.96 bitrate=N/A speed=3.01x    frame= 1114 fps= 72 q=-0.0 size=N/A time=00:00:46.46 bitrate=N/A speed=   3x    frame= 1151 fps= 72 q=-0.0 size=N/A time=00:00:48.00 bitrate=N/A speed=   3x    frame= 1187 fps= 72 q=-0.0 size=N/A time=00:00:49.50 bitrate=N/A speed=   3x    frame= 1226 fps= 72 q=-0.0 size=N/A time=00:00:51.13 bitrate=N/A speed=   3x    frame= 1263 fps= 72 q=-0.0 size=N/A time=00:00:52.67 bitrate=N/A speed=   3x    frame= 1294 fps= 72 q=-0.0 size=N/A time=00:00:53.97 bitrate=N/A speed=2.99x    frame= 1338 fps= 72 q=-0.0 size=N/A time=00:00:55.80 bitrate=N/A speed=   3x    frame= 1375 fps= 72 q=-0.0 size=N/A time=00:00:57.34 bitrate=N/A speed=   3x    frame= 1403 fps= 72 q=-0.0 size=N/A time=00:00:58.51 bitrate=N/A speed=2.98x    frame= 1447 fps= 72 q=-0.0 size=N/A time=00:01:00.35 bitrate=N/A speed=   3x    frame= 1487 fps= 72 q=-0.0 size=N/A time=00:01:02.02 bitrate=N/A speed=   3x    frame= 1525 fps= 72 q=-0.0 size=N/A time=00:01:03.60 bitrate=N/A speed=3.01x    frame= 1562 fps= 72 q=-0.0 size=N/A time=00:01:05.14 bitrate=N/A speed=3.01x    frame= 1601 fps= 72 q=-0.0 size=N/A time=00:01:06.77 bitrate=N/A speed=3.01x    frame= 1638 fps= 72 q=-0.0 size=N/A time=00:01:08.31 bitrate=N/A speed=3.01x    frame= 1676 fps= 72 q=-0.0 size=N/A time=00:01:09.90 bitrate=N/A speed=3.01x    frame= 1715 fps= 72 q=-0.0 size=N/A time=00:01:11.52 bitrate=N/A speed=3.01x    frame= 1752 fps= 72 q=-0.0 size=N/A time=00:01:13.07 bitrate=N/A speed=3.01x    frame= 1787 fps= 72 q=-0.0 size=N/A time=00:01:14.53 bitrate=N/A speed=3.01x    frame= 1828 fps= 72 q=-0.0 size=N/A time=00:01:16.24 bitrate=N/A speed=3.02x    frame= 1867 fps= 72 q=-0.0 size=N/A time=00:01:17.86 bitrate=N/A speed=3.02x    frame= 1904 fps= 72 q=-0.0 size=N/A time=00:01:19.41 bitrate=N/A speed=3.02x    frame= 1942 fps= 72 q=-0.0 size=N/A time=00:01:20.99 bitrate=N/A speed=3.02x    frame= 1976 fps= 72 q=-0.0 size=N/A time=00:01:22.41 bitrate=N/A speed=3.01x    frame= 2018 fps= 72 q=-0.0 size=N/A time=00:01:24.16 bitrate=N/A speed=3.02x    frame= 2057 fps= 72 q=-0.0 size=N/A time=00:01:25.79 bitrate=N/A speed=3.02x    frame= 2095 fps= 72 q=-0.0 size=N/A time=00:01:27.37 bitrate=N/A speed=3.02x    frame= 2133 fps= 73 q=-0.0 size=N/A time=00:01:28.96 bitrate=N/A speed=3.03x    frame= 2161 fps= 72 q=-0.0 size=N/A time=00:01:30.13 bitrate=N/A speed=3.01x    frame= 2209 fps= 73 q=-0.0 size=N/A time=00:01:32.13 bitrate=N/A speed=3.03x    frame= 2247 fps= 73 q=-0.0 size=N/A time=00:01:33.71 bitrate=N/A speed=3.03x    frame= 2283 fps= 73 q=-0.0 size=N/A time=00:01:35.22 bitrate=N/A speed=3.03x    frame= 2318 fps= 72 q=-0.0 size=N/A time=00:01:36.67 bitrate=N/A speed=3.02x    frame= 2362 fps= 73 q=-0.0 size=N/A time=00:01:38.51 bitrate=N/A speed=3.03x    frame= 2399 fps= 73 q=-0.0 size=N/A time=00:01:40.05 bitrate=N/A speed=3.03x    frame= 2431 fps= 72 q=-0.0 size=N/A time=00:01:41.39 bitrate=N/A speed=3.02x    frame= 2474 fps= 73 q=-0.0 size=N/A time=00:01:43.18 bitrate=N/A speed=3.03x    frame= 2512 fps= 73 q=-0.0 size=N/A time=00:01:44.77 bitrate=N/A speed=3.03x    frame= 2549 fps= 73 q=-0.0 size=N/A time=00:01:46.31 bitrate=N/A speed=3.03x    frame= 2585 fps= 73 q=-0.0 size=N/A time=00:01:47.81 bitrate=N/A speed=3.03x    frame= 2624 fps= 73 q=-0.0 size=N/A time=00:01:49.44 bitrate=N/A speed=3.03x    frame= 2662 fps= 73 q=-0.0 size=N/A time=00:01:51.02 bitrate=N/A speed=3.03x    frame= 2696 fps= 73 q=-0.0 size=N/A time=00:01:52.44 bitrate=N/A speed=3.03x    frame= 2737 fps= 73 q=-0.0 size=N/A time=00:01:54.15 bitrate=N/A speed=3.03x    frame= 2774 fps= 73 q=-0.0 size=N/A time=00:01:55.69 bitrate=N/A speed=3.03x    frame= 2812 fps= 73 q=-0.0 size=N/A time=00:01:57.28 bitrate=N/A speed=3.03x    frame= 2845 fps= 73 q=-0.0 size=N/A time=00:01:58.66 bitrate=N/A speed=3.03x    frame= 2886 fps= 73 q=-0.0 size=N/A time=00:02:00.37 bitrate=N/A speed=3.03x    frame= 2918 fps= 73 q=-0.0 size=N/A time=00:02:01.70 bitrate=N/A speed=3.02x    frame= 2961 fps= 73 q=-0.0 size=N/A time=00:02:03.49 bitrate=N/A speed=3.03x    frame= 2999 fps= 73 q=-0.0 size=N/A time=00:02:05.08 bitrate=N/A speed=3.03x    frame= 3035 fps= 73 q=-0.0 size=N/A time=00:02:06.58 bitrate=N/A speed=3.03x    frame= 3073 fps= 73 q=-0.0 size=N/A time=00:02:08.16 bitrate=N/A speed=3.03x    frame= 3102 fps= 72 q=-0.0 size=N/A time=00:02:09.37 bitrate=N/A speed=3.02x    frame= 3149 fps= 73 q=-0.0 size=N/A time=00:02:11.33 bitrate=N/A speed=3.03x    frame= 3187 fps= 73 q=-0.0 size=N/A time=00:02:12.92 bitrate=N/A speed=3.03x    frame= 3225 fps= 73 q=-0.0 size=N/A time=00:02:14.50 bitrate=N/A speed=3.03x    frame= 3262 fps= 73 q=-0.0 size=N/A time=00:02:16.05 bitrate=N/A speed=3.03x    frame= 3296 fps= 73 q=-0.0 size=N/A time=00:02:17.47 bitrate=N/A speed=3.03x    frame= 3338 fps= 73 q=-0.0 size=N/A time=00:02:19.22 bitrate=N/A speed=3.03x    frame= 3369 fps= 73 q=-0.0 size=N/A time=00:02:20.51 bitrate=N/A speed=3.03x    frame= 3412 fps= 73 q=-0.0 size=N/A time=00:02:22.30 bitrate=N/A speed=3.03x    frame= 3448 fps= 73 q=-0.0 size=N/A time=00:02:23.81 bitrate=N/A speed=3.03x    frame= 3479 fps= 72 q=-0.0 size=N/A time=00:02:25.10 bitrate=N/A speed=3.02x    frame= 3523 fps= 73 q=-0.0 size=N/A time=00:02:26.93 bitrate=N/A speed=3.03x    frame= 3559 fps= 73 q=-0.0 size=N/A time=00:02:28.43 bitrate=N/A speed=3.03x    frame= 3598 fps= 73 q=-0.0 size=N/A time=00:02:30.06 bitrate=N/A speed=3.03x    frame= 3635 fps= 73 q=-0.0 size=N/A time=00:02:31.60 bitrate=N/A speed=3.03x    frame= 3667 fps= 73 q=-0.0 size=N/A time=00:02:32.94 bitrate=N/A speed=3.02x    frame= 3712 fps= 73 q=-0.0 size=N/A time=00:02:34.82 bitrate=N/A speed=3.03x    frame= 3748 fps= 73 q=-0.0 size=N/A time=00:02:36.32 bitrate=N/A speed=3.03x    frame= 3779 fps= 72 q=-0.0 size=N/A time=00:02:37.61 bitrate=N/A speed=3.02x    frame= 3823 fps= 73 q=-0.0 size=N/A time=00:02:39.45 bitrate=N/A speed=3.03x    frame= 3860 fps= 73 q=-0.0 size=N/A time=00:02:40.99 bitrate=N/A speed=3.03x    frame= 3897 fps= 73 q=-0.0 size=N/A time=00:02:42.53 bitrate=N/A speed=3.03x    frame= 3935 fps= 73 q=-0.0 size=N/A time=00:02:44.12 bitrate=N/A speed=3.03x    frame= 3972 fps= 73 q=-0.0 size=N/A time=00:02:45.66 bitrate=N/A speed=3.03x    frame= 4005 fps= 73 q=-0.0 size=N/A time=00:02:47.04 bitrate=N/A speed=3.02x    frame= 4047 fps= 73 q=-0.0 size=N/A time=00:02:48.79 bitrate=N/A speed=3.03x    frame= 4083 fps= 73 q=-0.0 size=N/A time=00:02:50.29 bitrate=N/A speed=3.03x    frame= 4113 fps= 72 q=-0.0 size=N/A time=00:02:51.54 bitrate=N/A speed=3.02x    [Parsed_ssim_10 @ 000001f7356e8140] SSIM Y:0.993294 (21.735352) U:0.992840 (21.450943) V:0.993178 (21.660734) All:0.993199 (21.674252)
[out#0/null @ 000001f734db47c0] video:1788KiB audio:32552KiB subtitle:0KiB other streams:0KiB global headers:0KiB muxing overhead: unknown
frame= 4161 fps= 73 q=-0.0 Lsize=N/A time=00:02:53.54 bitrate=N/A speed=3.03x    
